<?xml version="1.0" encoding="UTF-8" standalone="no"?>
<!DOCTYPE svg PUBLIC "-//W3C//DTD SVG 1.1//EN" "http://www.w3.org/Graphics/SVG/1.1/DTD/svg11.dtd">
<!-- Created with Vectornator (http://vectornator.io/) -->
<svg height="680.0000000000001pt" stroke-miterlimit="10" style="fill-rule:nonzero;clip-rule:evenodd;stroke-linecap:round;stroke-linejoin:round;" version="1.1" viewBox="0 0 700 680" width="700.0pt" xml:space="preserve" xmlns="http://www.w3.org/2000/svg" xmlns:xlink="http://www.w3.org/1999/xlink">
<defs/>
<path d="M0 0L700 0L700 680L0 680L0 0Z" fill="#262829" fill-rule="nonzero" opacity="1" stroke="none"/>
<g id="Слой-1">
<g opacity="1">
<path d="M373.681 647.404L632.529 647.404C632.529 647.404 652.919 647.541 663.382 637.508C673.846 627.475 674.385 607.271 674.385 607.271L674.385 353.497L373.681 353.497L373.681 647.404Z" fill="#767575" fill-rule="nonzero" opacity="1" stroke="none"/>
<path d="M373.681 32.2711L632.529 32.2711C632.529 32.2711 654.485 32.1488 664.948 42.1821C675.412 52.2153 674.385 72.4041 674.385 72.4041L674.385 326.178L373.681 326.178L373.681 32.2711Z" fill="#ff6a00" fill-rule="nonzero" opacity="1" stroke="none"/>
<path d="M326.49 32.2711L67.6409 32.2711C67.6409 32.2711 46.4773 32.7011 36.0134 42.7343C25.5494 52.7676 25.7851 72.4041 25.7851 72.4041L25.7851 326.178L326.49 326.178L326.49 32.2711Z" fill="#767575" fill-rule="nonzero" opacity="1" stroke="none"/>
<path d="M326.49 647.404L67.6409 647.404C67.6409 647.404 44.6174 647.932 34.1534 637.899C23.6895 627.866 25.7851 607.271 25.7851 607.271L25.7851 353.497L326.49 353.497L326.49 647.404Z" fill="#767575" fill-rule="nonzero" opacity="1" stroke="none"/>
<path d="M222.082 32.2369L222.727 155.618L255.518 165.122L239.64 179.782L226.089 188.785L212.518 184.957L139.645 326.178L106.014 326.178L183.202 176.752L25.7928 135.023L25.7928 106.018L192.875 149.004L193.083 32.2369L222.082 32.2369Z" fill="#faeedc" fill-rule="nonzero" opacity="1" stroke="none"/>
<path d="M33.6095 637.176C33.6095 637.176 29.6245 633.718 26.7531 623.009C24.9054 612.021 25.7928 592.14 25.7928 592.14L86.0651 468.5L25.7151 436.643L25.7151 402.149L100.398 440.355L147.309 353.497L171.554 353.497L171.554 369.178L157.424 399.735L178.069 411.798L194.72 435.33L219.641 459.31L142.24 425.05L91.0151 522.807L172.142 566.63L205.231 504.654L227.051 461.641L254.397 481.334L162.266 647.763L130.104 647.763L157.761 590.631L77.7642 548.474L33.6095 637.176Z" fill="#faeedc" fill-rule="nonzero" opacity="1" stroke="none"/>
<path d="M438.178 647.359L569.692 353.497L603.305 353.497L537.168 494.222L674.42 553.146L674.42 587.824L528.24 522.692L469.219 647.502" fill="#faeedc" fill-rule="nonzero" opacity="1" stroke="none"/>
<path d="M215.313 647.763C217.156 635.089 222.38 620.574 224.691 614.015C234.975 584.822 248.707 557.482 266.249 531.986C271.357 524.562 287.205 502.519 288.006 502.869C289.565 503.552 309.838 509.048 326.49 510.785C326.38 514.871 326.949 531.112 326.49 535.429C318.961 542.182 299.55 557.221 290.056 576.431C276.047 602.272 262.847 638.033 262.51 647.763C241.855 647.763 229.722 647.763 215.313 647.763Z" fill="#ff6900" fill-rule="nonzero" opacity="1" stroke="none"/>
<path d="M447.883 176.792C452.815 162.889 452.723 157.071 462.148 135.117C473.155 114.16 475.009 112.334 484.772 97.8268C494.536 83.3192 507.712 65.7199 513.343 59.3029C518.975 52.8858 536.678 32.2369 536.678 32.2369L593.021 32.2369L560.228 71.5434C560.228 71.5434 536.536 101.409 530.552 110.105C524.569 118.802 517.096 128.688 505.838 154.051C494.581 179.414 486.875 213.656 486.875 213.656C486.875 213.656 456.631 187.941 447.883 176.792Z" fill="#fc9b28" fill-rule="nonzero" opacity="1" stroke="none"/>
<path d="M479.7 431.92C488.545 439.773 520.196 474.893 525.866 482.863C522.284 488.254 506.17 506.734 494.056 513.23C483.355 502.197 446.06 462.704 447.952 462.032C455.339 459.405 479.638 431.649 479.7 431.92Z" fill="#f7ebdc" fill-rule="nonzero" opacity="1" stroke="#262829" stroke-linecap="round" stroke-linejoin="round" stroke-width="9.58014"/>
<path d="M163.06 327.977C163.06 229.487 243.954 149.645 343.742 149.645C443.529 149.645 524.423 229.487 524.423 327.977C524.423 426.467 443.529 506.308 343.742 506.308C243.954 506.308 163.06 426.467 163.06 327.977Z" fill="#f7ebdc" fill-rule="nonzero" opacity="1" stroke="#262829" stroke-linecap="butt" stroke-linejoin="round" stroke-width="10"/>
<path d="M198.613 327.977C198.613 249.603 263.764 186.068 344.131 186.068C424.499 186.068 489.65 249.603 489.65 327.977C489.65 406.351 424.499 469.886 344.131 469.886C263.764 469.886 198.613 406.351 198.613 327.977Z" fill="#767877" fill-rule="nonzero" opacity="1" stroke="#262829" stroke-linecap="butt" stroke-linejoin="round" stroke-width="10"/>
<path d="M522.761 475.34C514.589 487.377 513.829 488.298 507.615 494.41C500.82 500.976 498.197 502.223 488.532 509.968C487.02 530.622 560.57 595.3 583.857 618.376C597.13 631.53 615.185 638.89 633.254 621.177C650.281 604.485 646.284 586.499 632.052 571.051C621.572 559.676 549.059 476.215 522.761 475.34Z" fill="#262829" fill-rule="nonzero" opacity="1" stroke="#262829" stroke-linecap="round" stroke-linejoin="round" stroke-width="10"/>
<path d="M269.365 453.904C275.722 438.002 283.419 417.931 290.956 404.215C322.484 346.835 344.301 335.347 382.688 280.997C389.292 271.649 425.955 220.226 432.194 213.656C446.184 225.885 442.634 222.346 451 231.318C459.9 240.863 468.05 253.804 467.141 254.972C450.24 276.671 435.826 292.176 418.807 313.782C408.875 326.391 384.598 352.331 375.644 365.653C360.46 388.245 343.663 410.165 332.582 434.483C326.921 446.905 322.88 458.677 319.477 472.056C308.92 471.413 301.604 467.978 294.428 465.681C285.202 462.727 277.841 458.485 269.365 453.904Z" fill="#fc9b28" fill-rule="nonzero" opacity="1" stroke="none"/>
<path d="M281.596 199.539C284.634 202.259 289.675 207.466 292.09 209.281C303.613 217.942 321.533 228.322 333.999 235.663C376.077 260.441 412.983 282.407 453.437 309.698C460.624 314.547 480.834 325.809 487.241 330.634C488.113 334.975 488.059 340.16 487.118 347.496C485.724 355.215 485.329 357.823 483.494 364.443C477.471 361.149 476.161 360.732 471.458 357.967C465.519 354.475 451.078 346.417 437.751 338.41C416.173 325.444 387.215 308.383 378.011 301.994C340.276 275.798 347.473 282.343 307.4 259.922C293.9 252.369 281.774 244.331 269.097 235.71C264.125 232.329 254.787 225.173 250.455 219.801C251.583 213.583 272.923 199.679 281.596 199.539Z" fill="#fceedd" fill-rule="nonzero" opacity="1" stroke="none"/>
<path d="M223.349 407.533C233.221 392.461 241.5 380.854 251.239 368.701C271.312 343.653 287.587 329.866 301.065 314.677C315.076 298.884 326.199 281.184 345.766 253.481C349.759 247.827 360.297 231.856 370.498 216.275C377.165 206.092 383.108 196.206 387.687 190.365C393.09 191.732 398.519 193.399 412.364 200.709C425.506 207.649 427.622 209.953 432.178 213.624C424.796 224.303 399.599 260.382 382.58 281.988C372.648 294.597 355.037 319.994 342.227 332.685C322.89 351.843 308.298 377.422 294.045 400.571C286.888 412.196 272.854 442.663 269.57 454.127C259.694 448.046 254.721 443.671 246.866 435.817C240.015 428.968 229.897 418.311 223.349 407.533Z" fill="#ff6900" fill-rule="nonzero" opacity="1" stroke="none"/>
<path d="M214.181 274.109C276.471 304.933 402.611 367.673 464.582 401.347C460.623 407.82 460.29 409.507 454.154 416.847C448.376 424.16 451.536 420.905 440.89 430.804C379.888 397.908 262.772 336.759 203.751 310.104C205.168 300.691 204.966 300.906 207.2 291.751C209.435 282.597 210.913 279.656 214.181 274.109Z" fill="#f9eddc" fill-rule="nonzero" opacity="1" stroke="none"/>
<path d="M198.613 327.977C198.613 249.603 263.764 186.068 344.131 186.068C424.499 186.068 489.65 249.603 489.65 327.977C489.65 406.351 424.499 469.886 344.131 469.886C263.764 469.886 198.613 406.351 198.613 327.977Z" fill="none" opacity="1" stroke="#262829" stroke-linecap="butt" stroke-linejoin="round" stroke-width="10"/>
</g>
</g>
</svg>
